<?xml version="1.0" encoding="UTF-8" standalone="no"?>
<!-- Created with Inkscape (http://www.inkscape.org/) -->

<svg
   width="231.15353mm"
   height="53.641964mm"
   viewBox="0 0 231.15353 53.641964"
   version="1.1"
   id="svg1"
   xml:space="preserve"
   xmlns:inkscape="http://www.inkscape.org/namespaces/inkscape"
   xmlns:sodipodi="http://sodipodi.sourceforge.net/DTD/sodipodi-0.dtd"
   xmlns:xlink="http://www.w3.org/1999/xlink"
   xmlns="http://www.w3.org/2000/svg"
   xmlns:svg="http://www.w3.org/2000/svg"><sodipodi:namedview
     id="namedview1"
     pagecolor="#ffffff"
     bordercolor="#000000"
     borderopacity="0.25"
     inkscape:showpageshadow="2"
     inkscape:pageopacity="0.0"
     inkscape:pagecheckerboard="0"
     inkscape:deskcolor="#d1d1d1"
     inkscape:document-units="mm"
     inkscape:export-bgcolor="#ffffff00" /><defs
     id="defs1"><linearGradient
       id="linearGradient3"
       inkscape:collect="always"><stop
         style="stop-color:#d33d3d;stop-opacity:1;"
         offset="0"
         id="stop4" /><stop
         style="stop-color:#5f44c8;stop-opacity:1;"
         offset="1"
         id="stop5" /></linearGradient><linearGradient
       id="linearGradient1"
       inkscape:collect="always"><stop
         style="stop-color:#137eff;stop-opacity:1;"
         offset="0.00416667"
         id="stop1" /><stop
         style="stop-color:#d26bd2;stop-opacity:1;"
         offset="0.50208336"
         id="stop3" /><stop
         style="stop-color:#ff7f7f;stop-opacity:1;"
         offset="1"
         id="stop2" /></linearGradient><linearGradient
       inkscape:collect="always"
       xlink:href="#linearGradient1"
       id="linearGradient2"
       x1="7.9607396"
       y1="72.522774"
       x2="56.731155"
       y2="72.522774"
       gradientUnits="userSpaceOnUse" /><linearGradient
       inkscape:collect="always"
       xlink:href="#linearGradient3"
       id="linearGradient5"
       x1="61.189781"
       y1="80.068146"
       x2="238.71326"
       y2="80.068146"
       gradientUnits="userSpaceOnUse" /><linearGradient
       inkscape:collect="always"
       xlink:href="#linearGradient1"
       id="linearGradient4"
       gradientUnits="userSpaceOnUse"
       x1="7.9607396"
       y1="72.522774"
       x2="56.731155"
       y2="72.522774" /></defs><g
     inkscape:label="Layer 1"
     inkscape:groupmode="layer"
     id="layer1"
     transform="translate(-3.2001936,-51.358037)"><text
       xml:space="preserve"
       style="font-style:normal;font-variant:normal;font-weight:normal;font-stretch:normal;font-size:26.8971px;font-family:sans-serif;-inkscape-font-specification:sans-serif;fill:url(#linearGradient5);stroke-width:2.24142"
       x="59.942112"
       y="86.77272"
       id="text1"
       transform="scale(0.98173733,1.0186024)"
       inkscape:export-filename="text1.svg"
       inkscape:export-xdpi="96"
       inkscape:export-ydpi="96"><tspan
         sodipodi:role="line"
         id="tspan1"
         style="font-style:normal;font-variant:normal;font-weight:normal;font-stretch:normal;font-size:26.8971px;font-family:Bahnschrift;-inkscape-font-specification:'Bahnschrift, @wght=600';font-variant-ligatures:normal;font-variant-caps:normal;font-variant-numeric:normal;font-variant-east-asian:normal;font-variation-settings:'wght' 600;fill:url(#linearGradient5);stroke-width:2.24142"
         x="59.942112"
         y="86.77272">BrowseBuyBox</tspan></text><g
       id="g1"
       transform="translate(-4.7605463,5.6562443)"
       style="fill:url(#linearGradient2)"><path
         style="fill:url(#linearGradient4);stroke-width:0.27678"
         d="M 31.794523,99.28397 C 24.032516,95.14128 16.335035,90.86616 8.7144928,86.46861 c -1.210557,-1.07452 -0.548893,-2.7576 -0.720073,-4.15487 -0.01124,-7.48847 -0.02245,-14.97695 -0.03368,-22.465428 0.81345,-2.14233 3.5206362,-2.637822 5.2391292,-3.904008 6.245026,-3.406506 12.383105,-7.031072 18.72744,-10.242512 2.503429,0.258408 4.599153,2.159049 6.880192,3.197726 5.728364,3.208269 11.512644,6.321822 17.173844,9.647064 1.21325,1.073516 0.54682,2.757492 0.71645,4.154708 0,7.55277 0,15.10554 0,22.65832 -0.8789,1.91303 -3.28281,2.32054 -4.86534,3.50146 -6.30101,3.4776 -12.538984,7.10655 -18.920242,10.41584 -0.365988,0.0809 -0.751321,0.0944 -1.117686,0.007 z M 29.930776,83.32744 c -2.77e-4,-3.13064 -8.3e-4,-6.26128 -0.0011,-9.39192 -5.711531,-3.16487 -11.416156,-6.34228 -17.134694,-9.49446 0.0124,6.2818 0.0248,12.56361 0.03717,18.84541 5.667874,3.14483 11.312477,6.33245 17.007974,9.42685 0.160726,-3.12218 0.05881,-6.25907 0.09066,-9.38588 z m 13.512169,4.64627 c 2.8072,-1.56207 5.6144,-3.12415 8.4216,-4.68623 0.0124,-6.28214 0.0248,-12.56428 0.0371,-18.84642 -5.71876,3.15186 -11.42322,6.32964 -17.13482,9.49446 0.02167,6.18966 -0.05593,12.38111 0.05511,18.56935 1.814107,-0.39853 4.131235,-2.22686 6.118074,-3.13986 0.834488,-0.46336 1.669065,-0.92722 2.502886,-1.3913 z M 35.372989,68.0404 c 1.152497,-0.79931 4.423832,-1.68198 1.548796,-2.56366 -4.961313,-2.89963 -9.859145,-5.919054 -14.899919,-8.676134 -1.916498,0.668824 -3.713053,1.986063 -5.574398,2.918746 -2.201611,1.062491 2.723184,2.117349 3.606704,3.150658 4.094509,2.28619 8.170013,4.60867 12.300567,6.82892 1.011112,-0.54357 2.012939,-1.10434 3.01825,-1.65853 z m 10.966176,-6.09571 c 1.18725,-0.78703 4.31228,-1.709944 1.40022,-2.50925 -5.147658,-2.841634 -10.245953,-5.780185 -15.463127,-8.491215 -1.57354,0.997199 -4.278047,1.999686 -5.157664,3.07855 5.397239,3.209007 10.803955,6.403063 16.239261,9.547035 1.00811,-0.5145 1.99003,-1.07913 2.98131,-1.62512 z"
         id="path1" /></g></g></svg>
